# xmcd
#
# Track frame offsets: 
#        150
#        30414
#        79316
#        99906
#        127920
#        166547
#        194225
#        218564
#        278641
#        306094
#        338608
#
# Disc length: 4805 seconds
#
# Revision: 0
# Processed by: cddbd v1.5.2PL0 Copyright (c) Steve Scherf et al.
# Submitted via: ExactAudioCopy v1.0b3
#
DISCID=8712c30b
DTITLE=Various Artist - Blues Paradise  vol.28
DYEAR=2002
DGENRE=Blues
TTITLE0=Rhett Tyler and Early Warning - My Passion
TTITLE1=David Gogo - Hoochie Coochie Man
TTITLE2=Tomcat Blake - If You Know
TTITLE3=Pat Travers - I Love You More Than You'll Ever Know
TTITLE4=Mick Taylor - Blind Willie McTell
TTITLE5=Roy Roberts - I'll Chance Your Blues Away
TTITLE6=Steddy Eddy - Blue Train
TTITLE7=Jon Bare - Don't Let The Sun Pass You By
TTITLE8=Bugs Henderson - Rock My Baby
TTITLE9=Toler Brothers - Goin' Down Slowly
TTITLE10=Mezz - Ramblin'
EXTD=
EXTT0=
EXTT1=
EXTT2=
EXTT3=
EXTT4=
EXTT5=
EXTT6=
EXTT7=
EXTT8=
EXTT9=
EXTT10=
PLAYORDER=
